<?xml version="1.0" standalone="no"?>
<svg xmlns:xlink="http://www.w3.org/1999/xlink" id="wave" style="transform:rotate(180deg); transition: 0.3s" viewBox="0 0 1440 490" version="1.1" xmlns="http://www.w3.org/2000/svg"><defs><linearGradient id="sw-gradient-0" x1="0" x2="0" y1="1" y2="0"><stop stop-color="rgba(243, 106, 62, 1)" offset="0%"/><stop stop-color="rgba(255, 179, 11, 1)" offset="100%"/></linearGradient></defs><path style="transform:translate(0, 0px); opacity:1" fill="url(#sw-gradient-0)" d="M0,294L60,318.5C120,343,240,392,360,392C480,392,600,343,720,334.8C840,327,960,359,1080,351.2C1200,343,1320,294,1440,277.7C1560,261,1680,278,1800,245C1920,212,2040,131,2160,155.2C2280,180,2400,310,2520,334.8C2640,359,2760,278,2880,220.5C3000,163,3120,131,3240,122.5C3360,114,3480,131,3600,147C3720,163,3840,180,3960,179.7C4080,180,4200,163,4320,155.2C4440,147,4560,147,4680,147C4800,147,4920,147,5040,196C5160,245,5280,343,5400,318.5C5520,294,5640,147,5760,130.7C5880,114,6000,229,6120,236.8C6240,245,6360,147,6480,89.8C6600,33,6720,16,6840,8.2C6960,0,7080,0,7200,24.5C7320,49,7440,98,7560,155.2C7680,212,7800,278,7920,261.3C8040,245,8160,147,8280,163.3C8400,180,8520,310,8580,375.7L8640,441L8640,490L8580,490C8520,490,8400,490,8280,490C8160,490,8040,490,7920,490C7800,490,7680,490,7560,490C7440,490,7320,490,7200,490C7080,490,6960,490,6840,490C6720,490,6600,490,6480,490C6360,490,6240,490,6120,490C6000,490,5880,490,5760,490C5640,490,5520,490,5400,490C5280,490,5160,490,5040,490C4920,490,4800,490,4680,490C4560,490,4440,490,4320,490C4200,490,4080,490,3960,490C3840,490,3720,490,3600,490C3480,490,3360,490,3240,490C3120,490,3000,490,2880,490C2760,490,2640,490,2520,490C2400,490,2280,490,2160,490C2040,490,1920,490,1800,490C1680,490,1560,490,1440,490C1320,490,1200,490,1080,490C960,490,840,490,720,490C600,490,480,490,360,490C240,490,120,490,60,490L0,490Z"/><defs><linearGradient id="sw-gradient-1" x1="0" x2="0" y1="1" y2="0"><stop stop-color="rgba(243, 106, 62, 1)" offset="0%"/><stop stop-color="rgba(255, 179, 11, 1)" offset="100%"/></linearGradient></defs><path style="transform:translate(0, 50px); opacity:0.9" fill="url(#sw-gradient-1)" d="M0,0L60,8.2C120,16,240,33,360,65.3C480,98,600,147,720,163.3C840,180,960,163,1080,163.3C1200,163,1320,180,1440,204.2C1560,229,1680,261,1800,253.2C1920,245,2040,196,2160,220.5C2280,245,2400,343,2520,318.5C2640,294,2760,147,2880,147C3000,147,3120,294,3240,343C3360,392,3480,343,3600,285.8C3720,229,3840,163,3960,155.2C4080,147,4200,196,4320,228.7C4440,261,4560,278,4680,253.2C4800,229,4920,163,5040,114.3C5160,65,5280,33,5400,24.5C5520,16,5640,33,5760,106.2C5880,180,6000,310,6120,343C6240,376,6360,310,6480,269.5C6600,229,6720,212,6840,220.5C6960,229,7080,261,7200,302.2C7320,343,7440,392,7560,375.7C7680,359,7800,278,7920,261.3C8040,245,8160,294,8280,277.7C8400,261,8520,180,8580,138.8L8640,98L8640,490L8580,490C8520,490,8400,490,8280,490C8160,490,8040,490,7920,490C7800,490,7680,490,7560,490C7440,490,7320,490,7200,490C7080,490,6960,490,6840,490C6720,490,6600,490,6480,490C6360,490,6240,490,6120,490C6000,490,5880,490,5760,490C5640,490,5520,490,5400,490C5280,490,5160,490,5040,490C4920,490,4800,490,4680,490C4560,490,4440,490,4320,490C4200,490,4080,490,3960,490C3840,490,3720,490,3600,490C3480,490,3360,490,3240,490C3120,490,3000,490,2880,490C2760,490,2640,490,2520,490C2400,490,2280,490,2160,490C2040,490,1920,490,1800,490C1680,490,1560,490,1440,490C1320,490,1200,490,1080,490C960,490,840,490,720,490C600,490,480,490,360,490C240,490,120,490,60,490L0,490Z"/><defs><linearGradient id="sw-gradient-2" x1="0" x2="0" y1="1" y2="0"><stop stop-color="rgba(243, 106, 62, 1)" offset="0%"/><stop stop-color="rgba(255, 179, 11, 1)" offset="100%"/></linearGradient></defs><path style="transform:translate(0, 100px); opacity:0.8" fill="url(#sw-gradient-2)" d="M0,98L60,81.7C120,65,240,33,360,73.5C480,114,600,229,720,228.7C840,229,960,114,1080,114.3C1200,114,1320,229,1440,294C1560,359,1680,376,1800,351.2C1920,327,2040,261,2160,196C2280,131,2400,65,2520,32.7C2640,0,2760,0,2880,24.5C3000,49,3120,98,3240,147C3360,196,3480,245,3600,228.7C3720,212,3840,131,3960,147C4080,163,4200,278,4320,334.8C4440,392,4560,392,4680,343C4800,294,4920,196,5040,187.8C5160,180,5280,261,5400,269.5C5520,278,5640,212,5760,204.2C5880,196,6000,245,6120,277.7C6240,310,6360,327,6480,310.3C6600,294,6720,245,6840,196C6960,147,7080,98,7200,81.7C7320,65,7440,82,7560,89.8C7680,98,7800,98,7920,106.2C8040,114,8160,131,8280,187.8C8400,245,8520,343,8580,392L8640,441L8640,490L8580,490C8520,490,8400,490,8280,490C8160,490,8040,490,7920,490C7800,490,7680,490,7560,490C7440,490,7320,490,7200,490C7080,490,6960,490,6840,490C6720,490,6600,490,6480,490C6360,490,6240,490,6120,490C6000,490,5880,490,5760,490C5640,490,5520,490,5400,490C5280,490,5160,490,5040,490C4920,490,4800,490,4680,490C4560,490,4440,490,4320,490C4200,490,4080,490,3960,490C3840,490,3720,490,3600,490C3480,490,3360,490,3240,490C3120,490,3000,490,2880,490C2760,490,2640,490,2520,490C2400,490,2280,490,2160,490C2040,490,1920,490,1800,490C1680,490,1560,490,1440,490C1320,490,1200,490,1080,490C960,490,840,490,720,490C600,490,480,490,360,490C240,490,120,490,60,490L0,490Z"/></svg>